<svg width="100" height="42" viewBox="0 0 100 42" fill="none" xmlns="http://www.w3.org/2000/svg">
<rect width="100" height="41.4508" fill="#EC111A"/>
<path d="M3.36865 4.14514V37.3058H9.3272L9.58627 22.5389L12.1769 37.3058H15.5448L18.1355 22.5389V37.3058H29.5345L30.3117 32.3835H34.9749L35.7521 37.3058H47.4101V26.684H48.7054L51.2961 37.3058H57.2547L53.6277 24.8705C55.6695 22.8196 56.634 21.4444 57.2547 17.6166L60.6225 37.3058H67.8764L72.5396 8.03115V37.3058H83.9386V31.3472H78.4982V23.8343H83.9386V17.6166H78.4982V10.3628H83.9386V4.14514H67.0992L64.2495 25.3887L61.9179 4.14514H55.1821L55.7003 9.06742C54.664 6.47675 51.2961 4.14514 49.2236 4.14514H41.1925V33.1607L37.0474 4.14514H28.7573L24.3531 34.197V4.14514H16.5811L13.7313 20.4664L10.8816 4.14514H3.36865Z" fill="#F9F9F9"/>
<path d="M84.9749 37.3058V4.14514H90.9334V31.6063H96.1148V37.3058H84.9749Z" fill="#F9F9F9"/>
<path d="M32.9019 13.2123L31.0884 26.4247H34.7153L32.9019 13.2123Z" fill="#EC111A"/>
<path d="M47.4096 20.2071V9.84442C49.7957 10.5978 51.2956 11.917 51.2956 15.2848C51.2956 17.6164 49.8355 19.879 47.4096 20.2071Z" fill="#EC111A"/>
</svg>
